<?xml version="1.0" standalone="no"?>
<!DOCTYPE svg PUBLIC "-//W3C//DTD SVG 20010904//EN"
 "http://www.w3.org/TR/2001/REC-SVG-20010904/DTD/svg10.dtd">
<svg version="1.0" xmlns="http://www.w3.org/2000/svg"
 width="512.000000pt" height="512.000000pt" viewBox="0 0 512.000000 512.000000"
 preserveAspectRatio="xMidYMid meet">
<metadata>
Created by potrace 1.11, written by Peter Selinger 2001-2013
</metadata>
<g transform="translate(0.000000,512.000000) scale(0.100000,-0.100000)"
fill="#000000" stroke="none">
<path d="M715 3160 l-720 -720 725 -725 725 -725 600 600 600 600 1238 0 1237
0 0 250 0 250 -1238 0 -1237 0 -595 595 c-327 327 -599 595 -605 595 -6 0
-334 -324 -730 -720z m1100 -1090 l-365 -365 -367 367 -368 368 365 365 365
365 367 -367 368 -368 -365 -365z"/>
<path d="M3810 3695 l-175 -175 373 -373 372 -372 370 370 c203 203 370 374
370 380 0 13 -332 345 -345 345 -5 0 -95 -86 -200 -190 l-190 -190 -190 190
c-104 104 -194 190 -200 190 -6 0 -89 -79 -185 -175z"/>
</g>
</svg>
